<svg fill="none" height="24" viewBox="0 0 24 24" width="24"
    xmlns="http://www.w3.org/2000/svg">
    <g fill="#9CA3AF">
        <path d="m7 16h-5c-.55228 0-1-.4477-1-1s.44772-1 1-1h5c1.65685 0 3 1.3431 3 3v5c0 .5523-.44772 1-1 1s-1-.4477-1-1v-5c0-.5523-.44772-1-1-1z"/>
        <path d="m10 2c0-.55228-.44771-1-1-1-.55228 0-1 .44772-1 1v5c0 .55228-.44772 1-1 1h-5c-.55228 0-1 .44771-1 1 0 .55228.44772 1 1 1h5c1.65685 0 3-1.34315 3-3z"/>
        <path d="m14 22c0 .5523.4477 1 1 1s1-.4477 1-1v-5c0-.5523.4477-1 1-1h5c.5523 0 1-.4477 1-1s-.4477-1-1-1h-5c-1.6569 0-3 1.3431-3 3z"/>
        <path d="m14 7c0 1.65686 1.3431 3 3 3h5c.5523 0 1-.44772 1-1s-.4477-1-1-1h-5c-.5523 0-1-.44771-1-1v-5c0-.55228-.4477-1-1-1s-1 .44772-1 1z"/>
    </g>
</svg>