<svg xmlns="http://www.w3.org/2000/svg" xmlns:xlink="http://www.w3.org/1999/xlink" version="1.1" id="Layer_1" x="0px" y="0px" viewBox="0 0 5201.5 2567" style="enable-background:new 0 0 5201.5 2567;" xml:space="preserve">
<style type="text/css">
	.st0{fill:#ff5000;}
</style>
<g id="Layer_1_00000059993375494873191160000009855780066791059377_">
	<g>
		<path class="st0" d="M1546.7,1230.3c32.4,0,62.5,0,94,0c0,72.7,0,144.4,0,216.2c1.3,0.4,2.6,0.9,3.9,1.3    c52.8-95.9,105.5-191.8,159.5-290c-26.2,0-49.8,0-75,0c16.6-53.5,32.6-105.3,48.5-156.9c100.7,13.6,197.9,166.8,190.2,299    c-9.6,164.2-136,285.3-296.9,290c-182.2,5.3-311.1-122.3-323.1-279.3c-14.1-185.5,113.8-301.1,232.5-324.4    C1569.2,1067.2,1558.1,1147.7,1546.7,1230.3z"/>
		<path class="st0" d="M3910.2,1066c-44.4,39.3-86.6,76.6-129.5,114.6c-34.5-35.7-77.5-44.4-123.6-36.4    c-65.5,11.4-104.7,62.6-106.8,135c-2,67.2,32.4,120.9,89.1,138.9c57.3,18.3,116.6,0.4,149-44.3c5.7-7.9,6.3-13.4,0-21.5    c-24.4-31.5-48-63.6-73.2-97.2c91.8,0,181.7,0,273,0c3.8,42.2,1.2,84.3-12,125.6c-39.6,124.2-154,207.7-284.6,208.8    c-113.7,0.9-205.5-41-269.4-136.7c-42.1-63.1-54.1-133.6-46.7-208.7c11-113,95.4-232.9,239.4-260.2    c102.5-19.4,197.1,0.3,278.8,68.7c3,2.5,5.7,5.3,8.7,7.8C3904.2,1061.9,3906.3,1063.2,3910.2,1066z"/>
		<path class="st0" d="M4040.6,993c6-0.3,11.2-0.7,16.4-0.7c125.6,0,251.1,0.2,376.6-0.3c12.7,0,16.7,3.1,16.4,16.2    c-0.8,42.8-0.8,85.6,0,128.5c0.2,13.1-3,17.4-16.8,17.3c-66.7-0.7-133.3-0.3-200-0.3c-5.8,0-11.6,0-18.6,0c0,20.6,0,40.3,0,62    c68.7,0,137.9,0,208.1,0c0,45.5,0,89,0,134.2c-69.2,0-138,0-208,0c0,21.6,0,41.7,0,63.5c77.8,0,155.4,0,234.1,0    c0,54.5,0,107.2,0,160.6c-136.3,0-271.8,0-408.1,0C4040.6,1380.1,4040.6,1187.2,4040.6,993z"/>
		<path class="st0" d="M751.5,993.1c5.9-0.3,10.2-0.8,14.4-0.8c54.5,0,109,0.3,163.5-0.2c10.5-0.1,14.9,3.4,18.6,13.2    c35.2,94.1,71.1,187.9,106.8,281.8c2,5.4,4.3,10.6,7.5,18.3c19.7-51.8,38.4-101.2,57.1-150.5c19.1-50.3,38.4-100.6,57.4-151    c2.5-6.7,4.5-11.8,13.7-11.8c57.9,0.4,115.8,0.2,173.7,0.2c2.3,0,4.6,0.7,8.3,1.3c-7,17-13.4,33.1-20.1,49    c-71.7,173.1-143.6,346.1-215,519.3c-3.9,9.4-8.1,13.2-18.7,13c-38.4-0.7-76.9-0.4-115.3-0.2c-7.5,0.1-12.1-1.4-15.3-9.3    c-78-188.8-156.2-377.6-234.3-566.4C753.2,997.6,752.7,996.3,751.5,993.1z"/>
		<path class="st0" d="M2842.9,1149.8c-50.4,0-99.8,0-151,0c0,142.1,0,282.5,0,423.8c-58.3,0-115,0-173.2,0c0-140.5,0-280.9,0-423.3    c-51.3,0-101,0-151.7,0c0-53.4,0-104.8,0-157.2c158.5,0,316.8,0,475.8,0C2842.9,1045.6,2842.9,1096.9,2842.9,1149.8z"/>
		<path class="st0" d="M2202.2,993.5c0,140.2,0,278.8,0,419.2c73.9,0,147,0,221.2,0c0,54.6,0,107.3,0,161c-131.1,0-262.1,0-394.1,0    c0-193.2,0-386,0-580.2C2086.5,993.5,2143.6,993.5,2202.2,993.5z"/>
		<path class="st0" d="M3398.9,1574.6c-59.5,0-117.3,0.2-175.2-0.4c-3.6,0-8.8-5-10.5-8.9c-8.4-19.1-15.5-38.8-24.1-57.7    c-1.8-4-8-8.4-12.3-8.5c-58.8-0.6-117.7-0.6-176.5,0c-4.5,0-11.1,5.1-13.1,9.5c-8.5,18.5-15.3,37.8-23.7,56.4    c-1.9,4.1-7.8,9.2-11.9,9.2c-57.4,0.6-114.7,0.4-174.3,0.4c2.2-5.5,3.7-9.8,5.5-14.1c76-184.8,152.2-369.5,227.8-554.5    c4.5-11,9.8-14.3,21.3-14.1c38.4,0.7,76.8,0.5,115.3,0.2c8.8-0.1,13.8,1.8,17.5,10.9c76.8,187.6,154.1,375,231.2,562.5    C3396.8,1567.7,3397.4,1570,3398.9,1574.6z M3037.4,1361.4c34.5,0,67.2,0,101.9,0c-16.9-43.9-33.2-86.5-50.9-132.5    C3070.7,1274.8,3054.2,1317.5,3037.4,1361.4z"/>
	</g>
</g>
</svg>